# xmcd
#
# Track frame offsets: 
#        150
#        23681
#        55374
#        71331
#        91150
#        100683
#        121841
#        140365
#        158913
#
# Disc length: 2262 seconds
#
# Revision: 0
# Processed by: cddbd v1.5.2PL0 Copyright (c) Steve Scherf et al.
# Submitted via: ExactAudioCopy v1.0b3
#
DISCID=6908d409
DTITLE=Magda Bożyk - Traces
DYEAR=2018
DGENRE=Vocal
TTITLE0=Time Blind
TTITLE1=Traces
TTITLE2=The Past
TTITLE3=Reason One
TTITLE4=Cause You Think of Me
TTITLE5=The Day Will Come
TTITLE6=Truth
TTITLE7=Choice
TTITLE8=Cień
EXTD=
EXTT0=
EXTT1=
EXTT2=
EXTT3=
EXTT4=
EXTT5=
EXTT6=
EXTT7=
EXTT8=
PLAYORDER=
